<?xml version="1.0" encoding="UTF-8" standalone="no"?>
<!-- Created with Inkscape (http://www.inkscape.org/) -->

<svg
   xmlns:dc="http://purl.org/dc/elements/1.1/"
   xmlns:cc="http://creativecommons.org/ns#"
   xmlns:rdf="http://www.w3.org/1999/02/22-rdf-syntax-ns#"
   xmlns:svg="http://www.w3.org/2000/svg"
   xmlns="http://www.w3.org/2000/svg"
   xmlns:sodipodi="http://sodipodi.sourceforge.net/DTD/sodipodi-0.dtd"
   xmlns:inkscape="http://www.inkscape.org/namespaces/inkscape"
   version="1.1"
   id="svg2"
   xml:space="preserve"
   width="522"
   height="224"
   viewBox="0 0 522.00002 224"
   sodipodi:docname="full-logo.svg"
   inkscape:version="0.92.3 (2405546, 2018-03-11)"><metadata
     id="metadata8"><rdf:RDF><cc:Work
         rdf:about=""><dc:format>image/svg+xml</dc:format><dc:type
           rdf:resource="http://purl.org/dc/dcmitype/StillImage" /><dc:title></dc:title></cc:Work></rdf:RDF></metadata><defs
     id="defs6"><clipPath
       clipPathUnits="userSpaceOnUse"
       id="clipPath32"><path
         d="M 0,620.032 H 862.238 V 0 H 0 Z"
         id="path30"
         inkscape:connector-curvature="0" /></clipPath></defs><sodipodi:namedview
     pagecolor="#ffffff"
     bordercolor="#666666"
     borderopacity="1"
     objecttolerance="10"
     gridtolerance="10"
     guidetolerance="10"
     inkscape:pageopacity="0"
     inkscape:pageshadow="2"
     inkscape:window-width="1920"
     inkscape:window-height="1016"
     id="namedview4"
     showgrid="false"
     inkscape:zoom="1.4564674"
     inkscape:cx="212.93216"
     inkscape:cy="168.31073"
     inkscape:window-x="0"
     inkscape:window-y="27"
     inkscape:window-maximized="1"
     inkscape:current-layer="text20" /><g
     id="g10"
     inkscape:groupmode="layer"
     inkscape:label="selection"
     transform="matrix(1.3333333,0,0,-1.3333333,0,223.99998)"><g
       id="g879"
       transform="translate(-204.52681,-226.01601)"><g
         aria-label="INTERLOCKLEDGER"
         transform="matrix(1,0,0,-1,346.387,319.698)"
         style="font-variant:normal;font-weight:bold;font-stretch:normal;font-size:40.49580002px;font-family:'Matamata Bold';-inkscape-font-specification:Matamata-Bold;writing-mode:lr-tb;fill:#20495f;fill-opacity:1;fill-rule:nonzero;stroke:none"
         id="text20"><path
           d="M 2.429748,-30.776808 V 0 h 4.4950338 v -30.776808 z"
           style=""
           id="path1142" /><path
           d="m 17.45369,-30.776808 v 30.7363122 h 4.495034 V -26.241278 h 8.625605 c 1.903303,0 4.090076,0.728924 4.090076,4.252059 v 21.9487232 h 4.495034 V -22.232194 c 0,-5.669412 -3.28016,-8.544614 -8.58511,-8.544614 z"
           style=""
           id="path1144" /><path
           d="M 67.830466,-30.776808 H 47.663558 v 4.495034 h 7.815689 V 0 h 4.53553 v -26.281774 h 7.815689 z"
           style=""
           id="path1146" /><path
           d="m 84.879195,0 h 11.86527 V -4.4950338 H 85.162666 C 81.639531,-4.859496 81.07259,-6.7223028 80.910607,-8.6661012 l -0.0405,-4.5355298 H 94.395708 V -17.73716 H 80.870111 v -4.454538 c 0,-1.903303 0.76942,-4.090076 4.252059,-4.090076 h 11.581799 v -4.495034 H 84.879195 c -5.709907,0 -8.544613,3.28016 -8.544613,8.58511 V -7.896681 C 76.213094,-3.037185 79.493254,0 84.879195,0 Z"
           style=""
           id="path1148" /><path
           d="m 127.64276,-20.612362 v -1.579336 c 0,-5.345446 -2.8752,-8.58511 -8.54461,-8.58511 H 107.27338 V 0 h 4.49503 v -12.189236 h 4.49503 l 5.99338,12.1487402 h 5.06198 l -6.03388,-12.2297312 c 4.13057,-0.526446 6.31735,-3.847101 6.35784,-8.342135 z m -4.53553,-0.202479 c 0,1.903302 -0.72892,4.090076 -4.25206,4.090076 h -7.08676 v -9.557009 h 7.12726 c 3.48264,0 4.21156,2.186773 4.21156,4.090076 z"
           style=""
           id="path1150" /><path
           d="m 142.26174,-30.776808 h -4.49503 V 0 h 17.69666 v -4.4950338 h -13.20163 z"
           style=""
           id="path1152" /><path
           d="m 164.37245,-22.191698 v 13.8090674 c 0,5.3049498 2.8347,8.5851096 8.50411,8.5851096 h 4.69752 c 5.66941,0 8.54461,-3.239664 8.54461,-8.5851096 V -22.191698 c 0,-5.30495 -2.8752,-8.58511 -8.50412,-8.58511 h -4.73801 c -5.66941,0 -8.50411,3.28016 -8.50411,8.58511 z m 4.53553,13.8090674 V -22.191698 c 0,-1.862807 0.72892,-4.171068 4.21156,-4.171068 h 4.21156 c 3.52314,0 4.29256,2.308261 4.29256,4.171068 v 13.8090674 c 0,2.3892522 -1.25537,4.1305716 -4.37355,4.1305716 h -4.13057 c -3.72561,0 -4.21156,-2.1867732 -4.21156,-4.1305716 z"
           style=""
           id="path1154" /><path
           d="m 205.88065,-30.776808 c -4.29256,0 -10.04296,1.093387 -10.04296,8.666101 v 13.606589 c 0,7.491723 5.7099,8.6256054 10.08345,8.6661012 h 1.9438 c 6.51982,0 9.71899,-3.037185 9.71899,-8.6661012 v -2.551235 h -4.49503 v 2.551235 c 0,3.7661094 -2.71322,4.1305716 -5.70991,4.1710674 h -0.52645 c -3.48263,-0.040496 -6.51982,-0.1214874 -6.51982,-4.1710674 v -13.606589 c 0,-4.090076 3.03719,-4.130571 6.51982,-4.171067 h 0.56695 c 2.95619,0.0405 5.66941,0.404958 5.66941,4.171067 v 2.551236 h 4.49503 v -2.551236 c 0,-7.289244 -5.18346,-8.666101 -9.67849,-8.666101 z"
           style=""
           id="path1156" /><path
           d="m 247.63182,-30.8578 h -5.46693 l -9.92148,14.254522 V -30.8578 h -4.53552 V 0 h 4.53552 V -8.3826306 L 235.40209,-12.958656 243.78472,0 h 5.62891 l -11.13634,-17.210715 z"
           style=""
           id="path1158" /><path
           d="M 6.9247818,16.360304 H 2.429748 V 47.137112 H 20.126413 V 42.642078 H 6.9247818 Z"
           style=""
           id="path1160" /><path
           d="m 37.580102,47.137112 h 11.86527 V 42.642078 H 37.863573 C 34.340438,42.277616 33.773497,40.414809 33.611514,38.47101 l -0.0405,-4.535529 h 13.525597 v -4.53553 H 33.571018 v -4.454538 c 0,-1.903302 0.76942,-4.090076 4.252059,-4.090076 H 49.404876 V 16.360304 H 37.580102 c -5.709908,0 -8.544614,3.280159 -8.544614,8.585109 v 14.295018 c -0.121487,4.859496 3.158673,7.896681 8.544614,7.896681 z"
           style=""
           id="path1162" /><path
           d="m 59.974281,47.258599 h 13.242126 c 5.669412,0 8.504118,-3.28016 8.504118,-8.58511 V 24.945413 c 0,-5.30495 -2.834706,-8.585109 -8.504118,-8.585109 H 59.974281 Z m 4.495034,-4.495034 V 20.814842 h 5.669412 2.672722 c 3.887597,0 4.414043,2.146277 4.414043,4.130571 v 13.728076 c 0,1.903303 -0.728925,4.090076 -4.252059,4.090076 z"
           style=""
           id="path1164" /><path
           d="m 101.52297,16.400799 c -4.33305,0.121488 -10.083454,1.093387 -10.083454,8.666102 V 38.47101 c 0,7.491723 5.750404,8.666102 10.123954,8.666102 h 1.94379 c 6.56032,0 9.6785,-2.99669 9.6785,-8.666102 v -6.722302 h -10.77188 v 4.535529 h 6.27685 v 2.186773 c 0,3.76611 -2.71322,4.130572 -5.66941,4.171068 h -0.56695 C 99.012231,42.601582 95.93455,42.52059 95.93455,38.47101 V 25.066901 c 0,-4.090076 2.996689,-4.171068 5.62892,-4.171068 h 1.45785 c 2.95619,0.0405 5.66941,0.404958 5.66941,4.171068 v 1.822311 h 4.49503 v -1.822311 c 0,-7.289244 -5.10247,-8.625606 -9.6785,-8.666102 z"
           style=""
           id="path1166" /><path
           d="m 131.44937,47.137112 h 11.86527 v -4.495034 h -11.5818 c -3.52313,-0.364462 -4.09007,-2.227269 -4.25206,-4.171068 l -0.0405,-4.535529 h 13.52559 v -4.53553 h -13.52559 v -4.454538 c 0,-1.903302 0.76942,-4.090076 4.25206,-4.090076 h 11.58179 v -4.495033 h -11.82477 c -5.70991,0 -8.54461,3.280159 -8.54461,8.585109 v 14.295018 c -0.12149,4.859496 3.15867,7.896681 8.54461,7.896681 z"
           style=""
           id="path1168" /><path
           d="m 174.21294,26.524749 v -1.579336 c 0,-5.345445 -2.8752,-8.585109 -8.54462,-8.585109 h -11.82477 v 30.776808 h 4.49503 V 34.947876 h 4.49504 l 5.99338,12.14874 h 5.06197 L 167.8551,34.866884 c 4.13057,-0.526445 6.31734,-3.847101 6.35784,-8.342135 z m -4.53553,-0.202479 c 0,1.903303 -0.72893,4.090076 -4.25206,4.090076 h -7.08677 v -9.557009 h 7.12727 c 3.48263,0 4.21156,2.186774 4.21156,4.090076 z"
           style=""
           id="path1170" /></g><g
         transform="translate(241.146,393.612)"
         id="g22"><path
           inkscape:connector-curvature="0"
           id="path24"
           style="fill:#00b9c3;fill-opacity:1;fill-rule:nonzero;stroke:none"
           d="M 0,0 -0.002,-0.001 -0.137,-0.08 -36.393,-21.23 -36.175,-104.614 5.147,-128.432 36.118,-20.855 0,-0.002 Z m 0.008,-4.518 31.512,-18.193 -28.746,-99.845 -35.048,20.202 -0.206,78.883 z" /></g><g
         id="g26"><g
           clip-path="url(#clipPath32)"
           id="g28"><g
             transform="translate(204.972,247.057)"
             id="g34"><path
               inkscape:connector-curvature="0"
               id="path36"
               style="fill:#818285;fill-opacity:1;fill-rule:nonzero;stroke:none"
               d="M 0,0 Z" /></g></g></g><g
         transform="translate(241.01,268.283)"
         id="g38"><path
           inkscape:connector-curvature="0"
           id="path40"
           style="fill:#00b9c3;fill-opacity:1;fill-rule:nonzero;stroke:none"
           d="M 0,0 V 0.001 0 0.001 L -36.038,20.715 V -21.226 L 0.226,-0.131 Z" /></g><g
         transform="translate(241.01,393.532)"
         id="g42"><path
           inkscape:connector-curvature="0"
           id="path44"
           style="fill:#818285;fill-opacity:1;fill-rule:nonzero;stroke:none"
           d="M 0,0 0.134,0.078 0,0.157 Z" /></g><g
         transform="translate(277.265,331.079)"
         id="g46"><path
           inkscape:connector-curvature="0"
           id="path48"
           style="fill:#00b9c3;fill-opacity:1;fill-rule:nonzero;stroke:none"
           d="m 0,0 v 0 41.678 l -36.119,20.853 -0.136,-83.65 72.349,-41.771 0.161,41.958 z" /></g><g
         transform="translate(241.01,309.959)"
         id="g50"><path
           inkscape:connector-curvature="0"
           id="path52"
           style="fill:#20495f;fill-opacity:1;fill-rule:nonzero;stroke:none"
           d="M 0,0 -36.038,-20.962 0,-41.676 v -10e-4 10e-4 -10e-4 L 0.226,-41.808 -36.038,-62.902 0,-83.616 72.349,-41.771 0.334,-0.193 Z" /></g></g></g></svg>
